<svg xmlns="http://www.w3.org/2000/svg" viewBox="0 0 256 256" width="256" height="256">
  <defs>
    <linearGradient id="bg" x1="0" y1="0" x2="1" y2="1">
      <stop offset="0" stop-color="#03122e"/>
      <stop offset=".48" stop-color="#052566"/>
      <stop offset="1" stop-color="#0083df"/>
    </linearGradient>
    <linearGradient id="rim" x1="0" y1="0" x2="1" y2="1">
      <stop offset="0" stop-color="#ffffff"/>
      <stop offset=".12" stop-color="#aefbff"/>
      <stop offset=".27" stop-color="#20cfff"/>
      <stop offset=".50" stop-color="#0048b8"/>
      <stop offset=".73" stop-color="#027dff"/>
      <stop offset="1" stop-color="#eaffff"/>
    </linearGradient>
    <linearGradient id="glass" x1="0" y1="0" x2="1" y2="1">
      <stop offset="0" stop-color="#ffffff" stop-opacity=".33"/>
      <stop offset=".36" stop-color="#b9f9ff" stop-opacity=".06"/>
      <stop offset="1" stop-color="#041a49" stop-opacity=".20"/>
    </linearGradient>
    <filter id="g" x="-45%" y="-45%" width="190%" height="190%">
      <feGaussianBlur stdDeviation="3.0" result="b"/>
      <feMerge><feMergeNode in="b"/><feMergeNode in="SourceGraphic"/></feMerge>
    </filter>
    <filter id="sg" x="-40%" y="-40%" width="180%" height="180%">
      <feGaussianBlur stdDeviation="1.2"/>
    </filter>
    <style>
      .ln{stroke:#f3fdff;stroke-width:4.0;stroke-linecap:round;stroke-linejoin:round;filter:url(#g)}
      .s{fill:#fff;stroke:#d7f8ff;stroke-width:1;filter:url(#g)}
      .f{stroke:#fff;stroke-width:1.5;stroke-linecap:round;opacity:.92;filter:url(#g)}
    </style>
  </defs>
  <rect x="4" y="4" width="248" height="248" rx="38" fill="url(#rim)" filter="url(#sg)"/>
  <rect x="15" y="15" width="226" height="226" rx="31" fill="#001234" stroke="#84efff" stroke-width="2.2" opacity=".98"/>
  <rect x="21" y="21" width="214" height="214" rx="27" fill="url(#bg)" stroke="#25c9ff" stroke-width="2.8"/>
  <rect x="31" y="31" width="194" height="194" rx="21" fill="none" stroke="#d6ffff" stroke-width="1.8" opacity=".70"/>
  <path d="M32 37 C57 15 105 20 136 29 C83 33 53 48 31 83 Z" fill="url(#glass)"/>
  <path d="M204 219 C225 201 230 168 225 135 C217 176 198 202 166 225 Z" fill="#77eaff" opacity=".13"/>
  <g class="ln">
<line x1="54" y1="112" x2="92" y2="92"/>
    <line x1="92" y1="92" x2="134" y2="78"/>
    <line x1="134" y1="78" x2="176" y2="96"/>
    <line x1="176" y1="96" x2="206" y2="132"/>
    <line x1="206" y1="132" x2="170" y2="154"/>
    <line x1="170" y1="154" x2="126" y2="146"/>
    <line x1="126" y1="146" x2="86" y2="132"/>
    <line x1="86" y1="132" x2="54" y2="112"/>
  </g>
  <g>
<circle class="s" cx="54" cy="112" r="6.2"/>
    <path class="f" d="M42.0,112.0H66.0M54.0,100.0V124.0"/>
    <circle class="s" cx="92" cy="92" r="4.7"/>
    <circle class="s" cx="134" cy="78" r="4.7"/>
    <circle class="s" cx="176" cy="96" r="4.7"/>
    <circle class="s" cx="206" cy="132" r="6.2"/>
    <path class="f" d="M194.0,132.0H218.0M206.0,120.0V144.0"/>
    <circle class="s" cx="170" cy="154" r="4.7"/>
    <circle class="s" cx="126" cy="146" r="4.7"/>
    <circle class="s" cx="86" cy="132" r="4.7"/>
  </g>
</svg>